<svg width="40" height="40" viewBox="0 0 40 40" fill="none" xmlns="http://www.w3.org/2000/svg">
<path fill-rule="evenodd" clip-rule="evenodd" d="M29.2646 34.9999C28.9981 35.001 28.7352 34.9381 28.4979 34.8166L19.9979 30.3666L11.4979 34.8166C10.6832 35.245 9.67549 34.9318 9.24709 34.1171C9.0749 33.7896 9.01656 33.4142 9.08127 33.0499L10.7479 23.6666L3.88127 16.9999C3.4447 16.5642 3.28441 15.9231 3.46461 15.3332C3.66168 14.7289 4.18531 14.2894 4.81461 14.1999L14.3146 12.8166L18.4979 4.26658C18.8992 3.43815 19.896 3.09183 20.7244 3.49306C21.0619 3.65653 21.3345 3.92905 21.4979 4.26658L25.7313 12.7999L35.2313 14.1832C35.8606 14.2727 36.3842 14.7123 36.5813 15.3166C36.7615 15.9064 36.6012 16.5476 36.1646 16.9832L29.2979 23.6499L30.9646 33.0332C31.0861 33.6712 30.8259 34.3217 30.2979 34.6999C29.9961 34.9114 29.6327 35.0169 29.2646 34.9999Z" fill="#DCB85B"/>
</svg>
